<svg viewBox="0 0 512 512" xml:space="preserve" xmlns="http://www.w3.org/2000/svg"><circle cx="256" cy="256" fill="#000000" r="256" class="fill-6cc24a"></circle><path d="M135.2 259.1c0-1.1-.6-2-1.5-2.5l-24.2-13.9c-.4-.2-.9-.4-1.3-.4h-.3c-.5 0-.9.1-1.3.4l-24.2 13.9c-.9.5-1.5 1.5-1.5 2.5l.1 37.4c0 .5.3 1 .7 1.3.4.3 1 .3 1.4 0l14.4-8.2c.9-.5 1.5-1.5 1.5-2.5v-17.5c0-1 .6-2 1.5-2.5l6.1-3.5c.5-.3 1-.4 1.5-.4s1 .1 1.5.4l6.1 3.5c.9.5 1.5 1.5 1.5 2.5V287c0 1 .6 2 1.5 2.5l14.4 8.2c.4.3 1 .3 1.5 0 .4-.3.7-.7.7-1.3l-.1-37.3zM264.2 207.6c-.5-.3-1-.2-1.5 0-.4.3-.7.7-.7 1.3V246c0 .4-.2.7-.5.9-.3.2-.7.2-1 0l-6.1-3.5c-.9-.5-2-.5-2.9 0l-24.2 14c-.9.5-1.5 1.5-1.5 2.5v27.9c0 1 .6 2 1.5 2.5l24.2 14c.9.5 2 .5 2.9 0l24.2-14c.9-.5 1.5-1.5 1.5-2.5v-69.6c0-1.1-.6-2-1.5-2.5l-14.4-8.1zm-2.2 71c0 .3-.1.5-.4.6l-8.3 4.8c-.2.1-.5.1-.7 0l-8.3-4.8c-.2-.1-.4-.4-.4-.6V269c0-.3.1-.5.4-.6l8.3-4.8c.2-.1.5-.1.7 0l8.3 4.8c.2.1.4.4.4.6v9.6zM350.7 268.7c.9-.5 1.5-1.5 1.5-2.5v-6.8c0-1-.6-2-1.5-2.5l-24-13.9c-.9-.5-2-.5-2.9 0l-24.2 14c-.9.5-1.5 1.5-1.5 2.5v27.9c0 1 .6 2 1.5 2.5l24 13.7c.9.5 2 .5 2.9 0l14.5-8.1c.5-.3.7-.7.8-1.3 0-.5-.3-1-.7-1.3l-24.3-14c-.5-.3-.7-.7-.7-1.3V269c0-.5.3-1 .7-1.3l7.6-4.4c.4-.3 1-.3 1.5 0l7.6 4.4c.5.3.7.7.7 1.3v6.9c0 .5.3 1 .7 1.3.5.3 1 .3 1.5 0l14.3-8.5zM179.1 242.8c.9-.5 2-.5 2.9 0l24.2 13.9c.9.5 1.5 1.5 1.5 2.5v27.9c0 1-.6 2-1.5 2.5l-24.2 14c-.9.5-2 .5-2.9 0l-24.2-14c-.9-.5-1.5-1.5-1.5-2.5v-27.9c0-1 .6-2 1.5-2.5l24.2-13.9zM397.6 304.1c-.8 0-1.7-.2-2.4-.6l-7.6-4.5c-1.1-.6-.6-.9-.2-1 1.5-.5 1.8-.6 3.4-1.6.2-.1.4-.1.6 0l5.8 3.5c.2.1.5.1.7 0l22.8-13.2c.2-.1.3-.4.3-.6v-26.3c0-.3-.1-.5-.4-.6L398 246.1c-.2-.1-.5-.1-.7 0l-22.8 13.1c-.2.1-.4.4-.4.6v26.3c0 .3.1.5.4.6l6.2 3.6c3.4 1.7 5.5-.3 5.5-2.3v-26c0-.4.3-.7.7-.7h2.9c.4 0 .7.3.7.7v26c0 4.5-2.5 7.1-6.7 7.1-1.3 0-2.4 0-5.3-1.4l-6-3.4c-1.5-.9-2.4-2.4-2.4-4.2v-26.3c0-1.7.9-3.3 2.4-4.2l22.8-13.2c1.4-.8 3.4-.8 4.8 0l22.8 13.2c1.5.9 2.4 2.4 2.4 4.2v26.3c0 1.7-.9 3.3-2.4 4.2L400 303.5c-.7.4-1.5.6-2.4.6z" fill="#FFFFFF" class="fill-ffffff"></path><path d="M404.7 286c-10 0-12.1-4.6-12.1-8.4 0-.4.3-.7.7-.7h2.9c.3 0 .6.2.7.6.4 3 1.8 4.5 7.8 4.5 4.8 0 6.8-1.1 6.8-3.6 0-1.5-.6-2.6-8-3.3-6.2-.6-10.1-2-10.1-7 0-4.6 3.9-7.3 10.4-7.3 7.3 0 10.9 2.5 11.4 8 0 .2 0 .4-.2.5-.1.1-.3.2-.5.2h-3c-.3 0-.6-.2-.6-.5-.7-3.2-2.4-4.2-7.1-4.2-5.2 0-5.9 1.8-5.9 3.2 0 1.7.7 2.1 7.8 3.1 7 .9 10.3 2.2 10.3 7.2 0 4.8-4.1 7.7-11.3 7.7zM324.9 267.4c.2-.1.4-.1.6 0l4.6 2.7c.2.1.3.3.3.5v5.4c0 .2-.1.4-.3.5l-4.6 2.7c-.2.1-.4.1-.6 0l-4.6-2.7c-.2-.1-.3-.3-.3-.5v-5.4c0-.2.1-.4.3-.5l4.6-2.7zM441 249.6c0 2.4-2 4.4-4.4 4.4-2.4 0-4.4-2-4.4-4.4 0-2.5 2-4.4 4.4-4.4 2.4 0 4.4 2 4.4 4.4zm-8.1 0c0 2 1.7 3.7 3.7 3.7s3.7-1.7 3.7-3.7-1.7-3.7-3.7-3.7c-2 .1-3.7 1.7-3.7 3.7zm2.1-2.4h1.7c.6 0 1.7 0 1.7 1.3 0 .9-.6 1.1-.9 1.2.7 0 .7.5.8 1.1 0 .4.1 1.1.3 1.3h-1c0-.2-.2-1.5-.2-1.6-.1-.3-.2-.4-.5-.4h-.9v2h-1v-4.9zm.9 2.1h.8c.6 0 .7-.4.7-.7 0-.7-.5-.7-.7-.7h-.8v1.4z" fill="#FFFFFF" class="fill-ffffff"></path></svg>